TITLE ""
FILE "2Q_t_0418-0434.mp3" MP3
  TRACK 01 AUDIO
    TITLE "2Q_t_0418-0434_01"
    INDEX 01 00:00:00
  TRACK 02 AUDIO
    TITLE "2Q_t_0418-0434_02"
    INDEX 01 00:00:69
  TRACK 03 AUDIO
    TITLE "2Q_t_0418-0434_03"
    INDEX 01 00:01:43
  TRACK 04 AUDIO
    TITLE "2Q_t_0418-0434_04"
    INDEX 01 00:05:10
  TRACK 05 AUDIO
    TITLE "2Q_t_0418-0434_05"
    INDEX 01 00:05:55
  TRACK 06 AUDIO
    TITLE "2Q_t_0418-0434_06"
    INDEX 01 00:06:56
  TRACK 07 AUDIO
    TITLE "2Q_t_0418-0434_07"
    INDEX 01 00:07:28
  TRACK 08 AUDIO
    TITLE "2Q_t_0418-0434_08"
    INDEX 01 00:11:16
  TRACK 09 AUDIO
    TITLE "2Q_t_0418-0434_09"
    INDEX 01 00:11:59
  TRACK 10 AUDIO
    TITLE "2Q_t_0418-0434_10"
    INDEX 01 00:13:05
  TRACK 11 AUDIO
    TITLE "2Q_t_0418-0434_11"
    INDEX 01 00:13:56
  TRACK 12 AUDIO
    TITLE "2Q_t_0418-0434_12"
    INDEX 01 00:15:18
  TRACK 13 AUDIO
    TITLE "2Q_t_0418-0434_13"
    INDEX 01 00:15:61
  TRACK 14 AUDIO
    TITLE "2Q_t_0418-0434_14"
    INDEX 01 00:17:15
  TRACK 15 AUDIO
    TITLE "2Q_t_0418-0434_15"
    INDEX 01 00:17:60
  TRACK 16 AUDIO
    TITLE "2Q_t_0418-0434_16"
    INDEX 01 00:20:66
  TRACK 17 AUDIO
    TITLE "2Q_t_0418-0434_17"
    INDEX 01 00:21:36
  TRACK 18 AUDIO
    TITLE "2Q_t_0418-0434_18"
    INDEX 01 00:22:39
  TRACK 19 AUDIO
    TITLE "2Q_t_0418-0434_19"
    INDEX 01 00:23:13
  TRACK 20 AUDIO
    TITLE "2Q_t_0418-0434_20"
    INDEX 01 00:27:66
  TRACK 21 AUDIO
    TITLE "2Q_t_0418-0434_21"
    INDEX 01 00:28:36
  TRACK 22 AUDIO
    TITLE "2Q_t_0418-0434_22"
    INDEX 01 00:29:39
  TRACK 23 AUDIO
    TITLE "2Q_t_0418-0434_23"
    INDEX 01 00:30:09
  TRACK 24 AUDIO
    TITLE "2Q_t_0418-0434_24"
    INDEX 01 00:32:61
  TRACK 25 AUDIO
    TITLE "2Q_t_0418-0434_25"
    INDEX 01 00:33:31
  TRACK 26 AUDIO
    TITLE "2Q_t_0418-0434_26"
    INDEX 01 00:34:37
  TRACK 27 AUDIO
    TITLE "2Q_t_0418-0434_27"
    INDEX 01 00:35:13
  TRACK 28 AUDIO
    TITLE "2Q_t_0418-0434_28"
    INDEX 01 00:40:04
  TRACK 29 AUDIO
    TITLE "2Q_t_0418-0434_29"
    INDEX 01 00:40:49
  TRACK 30 AUDIO
    TITLE "2Q_t_0418-0434_30"
    INDEX 01 00:41:54
  TRACK 31 AUDIO
    TITLE "2Q_t_0418-0434_31"
    INDEX 01 00:42:24
  TRACK 32 AUDIO
    TITLE "2Q_t_0418-0434_32"
    INDEX 01 00:43:43
  TRACK 33 AUDIO
    TITLE "2Q_t_0418-0434_33"
    INDEX 01 00:44:21
  TRACK 34 AUDIO
    TITLE "2Q_t_0418-0434_34"
    INDEX 01 00:46:38
  TRACK 35 AUDIO
    TITLE "2Q_t_0418-0434_35"
    INDEX 01 00:47:10
  TRACK 36 AUDIO
    TITLE "2Q_t_0418-0434_36"
    INDEX 01 00:48:37
  TRACK 37 AUDIO
    TITLE "2Q_t_0418-0434_37"
    INDEX 01 00:49:15
  TRACK 38 AUDIO
    TITLE "2Q_t_0418-0434_38"
    INDEX 01 00:52:31
  TRACK 39 AUDIO
    TITLE "2Q_t_0418-0434_39"
    INDEX 01 00:53:01
  TRACK 40 AUDIO
    TITLE "2Q_t_0418-0434_40"
    INDEX 01 00:54:14
  TRACK 41 AUDIO
    TITLE "2Q_t_0418-0434_41"
    INDEX 01 00:54:63
  TRACK 42 AUDIO
    TITLE "2Q_t_0418-0434_42"
    INDEX 01 00:59:27
  TRACK 43 AUDIO
    TITLE "2Q_t_0418-0434_43"
    INDEX 01 00:59:70
  TRACK 44 AUDIO
    TITLE "2Q_t_0418-0434_44"
    INDEX 01 01:01:33
  TRACK 45 AUDIO
    TITLE "2Q_t_0418-0434_45"
    INDEX 01 01:02:09
  TRACK 46 AUDIO
    TITLE "2Q_t_0418-0434_46"
    INDEX 01 01:04:51
  TRACK 47 AUDIO
    TITLE "2Q_t_0418-0434_47"
    INDEX 01 01:05:22
  TRACK 48 AUDIO
    TITLE "2Q_t_0418-0434_48"
    INDEX 01 01:06:60
  TRACK 49 AUDIO
    TITLE "2Q_t_0418-0434_49"
    INDEX 01 01:07:32
  TRACK 50 AUDIO
    TITLE "2Q_t_0418-0434_50"
    INDEX 01 01:08:36
  TRACK 51 AUDIO
    TITLE "2Q_t_0418-0434_51"
    INDEX 01 01:09:04
  TRACK 52 AUDIO
    TITLE "2Q_t_0418-0434_52"
    INDEX 01 01:10:21
  TRACK 53 AUDIO
    TITLE "2Q_t_0418-0434_53"
    INDEX 01 01:10:70
  TRACK 54 AUDIO
    TITLE "2Q_t_0418-0434_54"
    INDEX 01 01:13:07
  TRACK 55 AUDIO
    TITLE "2Q_t_0418-0434_55"
    INDEX 01 01:13:52
  TRACK 56 AUDIO
    TITLE "2Q_t_0418-0434_56"
    INDEX 01 01:15:00
  TRACK 57 AUDIO
    TITLE "2Q_t_0418-0434_57"
    INDEX 01 01:15:51
  TRACK 58 AUDIO
    TITLE "2Q_t_0418-0434_58"
    INDEX 01 01:18:22
  TRACK 59 AUDIO
    TITLE "2Q_t_0418-0434_59"
    INDEX 01 01:18:65
  TRACK 60 AUDIO
    TITLE "2Q_t_0418-0434_60"
    INDEX 01 01:20:11
  TRACK 61 AUDIO
    TITLE "2Q_t_0418-0434_61"
    INDEX 01 01:20:60
  TRACK 62 AUDIO
    TITLE "2Q_t_0418-0434_62"
    INDEX 01 01:23:16
  TRACK 63 AUDIO
    TITLE "2Q_t_0418-0434_63"
    INDEX 01 01:23:61
  TRACK 64 AUDIO
    TITLE "2Q_t_0418-0434_64"
    INDEX 01 01:24:64
  TRACK 65 AUDIO
    TITLE "2Q_t_0418-0434_65"
    INDEX 01 01:25:36
  TRACK 66 AUDIO
    TITLE "2Q_t_0418-0434_66"
    INDEX 01 01:28:73
  TRACK 67 AUDIO
    TITLE "2Q_t_0418-0434_67"
    INDEX 01 01:29:42
  TRACK 68 AUDIO
    TITLE "2Q_t_0418-0434_68"
    INDEX 01 01:30:35
  TRACK 69 AUDIO
    TITLE "2Q_t_0418-0434_69"
    INDEX 01 01:31:19
  TRACK 70 AUDIO
    TITLE "2Q_t_0418-0434_70"
    INDEX 01 01:33:55
